name Walk3.mot
datacolumns 19
datarows 22
range 1.92800000 1.94900000
endheader

                time	   L_ground_force_vx	   L_ground_force_vy	   L_ground_force_vz	   L_ground_force_px	   L_ground_force_py	   L_ground_force_pz	   R_ground_force_vx	   R_ground_force_vy	   R_ground_force_vz	   R_ground_force_px	   R_ground_force_py	   R_ground_force_pz	   L_ground_torque_x	   L_ground_torque_y	   L_ground_torque_z	   R_ground_torque_x	   R_ground_torque_y	   R_ground_torque_z	
          1.92800000	          0.17302416	          0.30441901	          0.00003538	          0.00112878	          0.00000000	          0.00029266	        -18.61392321	        705.64423312	        -46.35058746	          0.16708017	          0.00000000	          0.08844139	          0.00000000	          0.00004499	          0.00000000	          0.00000000	          8.60139041	          0.00000000	
          1.92900000	          0.17375374	          0.32477979	         -0.00117439	          0.00102643	          0.00000000	          0.00026820	        -18.10355155	        703.29053210	        -46.33638900	          0.16754821	          0.00000000	          0.08850834	          0.00000000	          0.00005828	          0.00000000	          0.00000000	          8.55586750	          0.00000000	
          1.93000000	          0.17376471	          0.34218214	         -0.00227687	          0.00092891	          0.00000000	          0.00024482	        -17.59778302	        700.97104179	        -46.32254123	          0.16801297	          0.00000000	          0.08857459	          0.00000000	          0.00007023	          0.00000000	          0.00000000	          8.50967722	          0.00000000	
          1.93100000	          0.17311813	          0.35681184	         -0.00327701	          0.00083617	          0.00000000	          0.00022249	        -17.09661663	        698.68722818	        -46.30897886	          0.16847437	          0.00000000	          0.08864005	          0.00000000	          0.00008089	          0.00000000	          0.00000000	          8.46281242	          0.00000000	
          1.93200000	          0.17187235	          0.36884936	         -0.00417972	          0.00074816	          0.00000000	          0.00020122	        -16.60004852	        696.44046489	        -46.29564392	          0.16893231	          0.00000000	          0.08870469	          0.00000000	          0.00009035	          0.00000000	          0.00000000	          8.41526601	          0.00000000	
          1.93300000	          0.17008303	          0.37846960	         -0.00498989	          0.00066480	          0.00000000	          0.00018100	        -16.10807179	        694.23203186	        -46.28248588	          0.16938674	          0.00000000	          0.08876843	          0.00000000	          0.00009865	          0.00000000	          0.00000000	          8.36703099	          0.00000000	
          1.93400000	          0.16780314	          0.38584174	         -0.00571233	          0.00058602	          0.00000000	          0.00016182	        -15.62067657	        692.06311606	        -46.26946136	          0.16983758	          0.00000000	          0.08883120	          0.00000000	          0.00010588	          0.00000000	          0.00000000	          8.31810038	          0.00000000	
          1.93500000	          0.16508301	          0.39112907	         -0.00635175	          0.00051172	          0.00000000	          0.00014365	        -15.13785033	        689.93481415	        -46.25653350	          0.17028476	          0.00000000	          0.08889296	          0.00000000	          0.00011209	          0.00000000	          0.00000000	          8.26846699	          0.00000000	
          1.93600000	          0.16197034	          0.39448885	         -0.00691280	          0.00044181	          0.00000000	          0.00012649	        -14.65957839	        687.84813604	        -46.24367111	          0.17072825	          0.00000000	          0.08895362	          0.00000000	          0.00011735	          0.00000000	          0.00000000	          8.21812321	          0.00000000	
          1.93700000	          0.15851028	          0.39607230	         -0.00740003	          0.00037617	          0.00000000	          0.00011031	        -14.18584426	        685.80400828	        -46.23084779	          0.17116798	          0.00000000	          0.08901314	          0.00000000	          0.00012172	          0.00000000	          0.00000000	          8.16706080	          0.00000000	
          1.93800000	          0.15474543	          0.39602444	         -0.00781787	          0.00031469	          0.00000000	          0.00009508	        -13.71662971	        683.80327646	        -46.21804120	          0.17160392	          0.00000000	          0.08907146	          0.00000000	          0.00012526	          0.00000000	          0.00000000	          8.11527096	          0.00000000	
          1.93900000	          0.15071594	          0.39448417	         -0.00817064	          0.00025724	          0.00000000	          0.00008079	        -13.25191463	        681.84670662	        -46.20523249	          0.17203603	          0.00000000	          0.08912850	          0.00000000	          0.00012803	          0.00000000	          0.00000000	          8.06274434	          0.00000000	
          1.94000000	          0.14645954	          0.39158420	         -0.00846254	          0.00020371	          0.00000000	          0.00006742	        -12.79167667	        679.93498601	        -46.19240605	          0.17246428	          0.00000000	          0.08918423	          0.00000000	          0.00013007	          0.00000000	          0.00000000	          8.00947121	          0.00000000	
          1.94100000	          0.14201159	          0.38745109	         -0.00869764	          0.00015396	          0.00000000	          0.00005492	        -12.33589108	        678.06872317	        -46.17954922	          0.17288865	          0.00000000	          0.08923859	          0.00000000	          0.00013145	          0.00000000	          0.00000000	          7.95544169	          0.00000000	
          1.94200000	          0.13740520	          0.38220531	         -0.00887989	          0.00010786	          0.00000000	          0.00004328	        -11.88453069	        676.24844786	        -46.16665217	          0.17330911	          0.00000000	          0.08929153	          0.00000000	          0.00013222	          0.00000000	          0.00000000	          7.90064591	          0.00000000	
          1.94300000	          0.13267124	          0.37596128	         -0.00901309	          0.00006528	          0.00000000	          0.00003246	        -11.43756625	        674.47461131	        -46.15370760	          0.17372566	          0.00000000	          0.08934298	          0.00000000	          0.00013242	          0.00000000	          0.00000000	          7.84507419	          0.00000000	
          1.94400000	          0.12783844	          0.36882747	         -0.00910091	          0.00002606	          0.00000000	          0.00002245	        -10.99496699	        672.74758759	        -46.14071014	          0.17413826	          0.00000000	          0.08939291	          0.00000000	          0.00013211	          0.00000000	          0.00000000	          7.78871714	          0.00000000	
          1.94500000	          0.12293348	          0.36090650	         -0.00914686	         -0.00000992	          0.00000000	          0.00001320	        -10.55670126	        671.06767652	        -46.12765557	          0.17454692	          0.00000000	          0.08944126	          0.00000000	          0.00013132	          0.00000000	          0.00000000	          7.73156587	          0.00000000	
          1.94600000	          0.11798103	          0.35229522	         -0.00915435	         -0.00004280	          0.00000000	          0.00000468	        -10.12273699	        669.43510749	        -46.11453990	          0.17495162	          0.00000000	          0.08948798	          0.00000000	          0.00013010	          0.00000000	          0.00000000	          7.67361206	          0.00000000	
          1.94700000	          0.11300382	          0.34308486	         -0.00912661	         -0.00007272	          0.00000000	         -0.00000313	         -9.69304199	        667.85004336	        -46.10135879	          0.17535236	          0.00000000	          0.08953301	          0.00000000	          0.00012849	          0.00000000	          0.00000000	          7.61484819	          0.00000000	
          1.94800000	          0.10802279	          0.33336117	         -0.00906674	         -0.00009983	          0.00000000	         -0.00001026	         -9.26758384	        666.31258383	        -46.08810716	          0.17574912	          0.00000000	          0.08957632	          0.00000000	          0.00012654	          0.00000000	          0.00000000	          7.55526769	          0.00000000	
          1.94900000	          0.10305707	          0.32320453	         -0.00897770	         -0.00012425	          0.00000000	         -0.00001675	         -8.84632973	        664.82276828	        -46.07477912	          0.17614190	          0.00000000	          0.08961786	          0.00000000	          0.00012427	          0.00000000	          0.00000000	          7.49486495	          0.00000000	
